<svg id="ship" xmlns="http://www.w3.org/2000/svg" width="2000" height="2000" viewBox="0 0 2000 2000">
  <defs>
    <style>
      .cls-1, .cls-3 {
        fill: #999;
      }

      .cls-1, .cls-10, .cls-11, .cls-2, .cls-4, .cls-5, .cls-6, .cls-7, .cls-8, .cls-9 {
        fill-rule: evenodd;
      }

      .cls-14, .cls-2 {
        fill: #d6d6d6;
      }

      .cls-4 {
        fill: #4c636b;
      }

      .cls-13, .cls-5 {
        fill: #172c33;
      }

      .cls-6 {
        fill: #e3d28c;
      }

      .cls-7 {
        fill: #ece5ca;
      }

      .cls-8 {
        fill: #9b8e5b;
      }

      .cls-12, .cls-9 {
        fill: #627b84;
      }

      .cls-10 {
        fill: #4fc9a5;
      }

      .cls-11 {
        fill: #267a61;
      }
    </style>
  </defs>
  <path class="cls-1" d="M1679,1436.19c40.8,0,73.88,10.36,73.88,23.14s-33.08,23.14-73.88,23.14-73.87-10.36-73.87-23.14S1638.2,1436.19,1679,1436.19Z"/>
  <path class="cls-2" d="M1659,1426.19c40.8,0,73.88,10.36,73.88,23.14s-33.08,23.14-73.88,23.14-73.87-10.36-73.87-23.14S1618.2,1426.19,1659,1426.19Z"/>
  <ellipse class="cls-3" cx="531" cy="1400.33" rx="73.875" ry="23.14"/>
  <path class="cls-2" d="M508,1364.19c40.8,0,73.875,10.36,73.875,23.14S548.8,1410.47,508,1410.47s-60.175-12.72-61-24.47C445.667,1367,467.2,1364.19,508,1364.19Z"/>
  <ellipse class="cls-3" cx="1590.44" cy="1411.515" rx="123.47" ry="38.675"/>
  <path class="cls-2" d="M1557.01,1356.12c68.19,0,256.34,29.37,234.99,29.88-84.97,2.02-166.8,47.47-234.99,47.47s-123.47-17.31-123.47-38.67S1488.82,1356.12,1557.01,1356.12Z"/>
  <path class="cls-2" d="M1291.55,426.289l8.9-4.578,310,602-8.9,4.58Z"/>
  <path class="cls-2" d="M254.831,1001.87l6.338-7.737s4.205,153.107,108.093,238.247c111.82,91.63,156.907,98.75,156.907,98.75l-6.338,7.74s-44.327-6.51-155.806-97.86C259.745,1155.56,254.831,1001.87,254.831,1001.87Z"/>
  <path class="cls-2" d="M255.814,1015.5l4.372-9s37.577,115.84,71.741,132.45C369.592,1157.26,392,1079,392,1079l-13-8s-13.016,95.62-50.349,77.47C294.091,1131.67,255.814,1015.5,255.814,1015.5Z"/>
  <path class="cls-2" d="M801.642,793.812l2.716-9.624,893,252-2.72,9.62Z"/>
  <path class="cls-2" d="M1689.1,825.377l3.8,9.246-51,21-3.8-9.246Z"/>
  <path class="cls-2" d="M1681.44,850.545l8.3,5.559-89.27,133.213-8.29-5.559Z"/>
  <path class="cls-2" d="M1042.13,187.9l5.74,8.192-30,21-5.74-8.192Z"/>
  <path class="cls-2" d="M1047.49,272.84l9.02,4.32-34,71-9.02-4.32Z"/>
  <path class="cls-2" d="M1090,933l4,34s4.27,66.51-9.59,120.31c-20.05,77.8-60.57,151.95-60.57,151.95l-9.68-2.52s39.09-71.48,59.79-154.38C1090.76,1015.02,1090,933,1090,933Z"/>
  <path class="cls-2" d="M792.22,795.939l1.56-9.878,57,9-1.56,9.878Z"/>
  <path class="cls-2" d="M1302.68,427.478l8.64,5.044-59,101-8.64-5.044Z"/>
  <path class="cls-2" d="M1420.14,757.822l7.72,6.356s24.54,108.33-77.28,232.022c-93.31,113.36-313.72,242.98-313.72,242.98l-7.72-6.36s220.01-129.12,313.09-242.2C1444.24,866.693,1420.14,757.822,1420.14,757.822Z"/>
  <path class="cls-2" d="M804,928l27.413,9.942L1009.33,1097.58l-8.76,4.92Z"/>
  <path class="cls-2" d="M983.55,491.641l4.9,8.718S714.441,669.306,489,796c-52.151,29.308-85.784,55.714-125,75C248.1,928,123,978,123,978l-18-2s187.531-72.671,377-188C696.4,657.494,983.55,491.641,983.55,491.641Z"/>
  <path class="cls-4" d="M1285.42,478.584s-69.25,111.472,35.76,177.84c125.16,79.1,103.84,109.307,103.84,109.307S1087.23,968.1,1087.99,964.305c28.78-143.14-273.532-162.4-273.532-162.4l-8.3-4.361S986.4,702.5,1078.88,640.939C1243.64,531.274,1285.42,478.584,1285.42,478.584Z"/>
  <path class="cls-5" d="M1275,503s-48.08,81.065,51,156c71.86,54.345,69,93,69,93s-302.77,219.1-302.01,215.3C1121.77,824.165,937,808,937,808L827,797s387.7,9,383-102C1203.99,553.151,1275,503,1275,503Z"/>
  <path class="cls-6" d="M1443.97,789.633L1061.53,984.28l-11.56.523,378.21-224.032s16.44,2.778,20.76,10.829C1452.37,777.987,1443.97,789.633,1443.97,789.633Z"/>
  <path class="cls-7" d="M1425,779.537L1069.9,978.413l-20.43,6.629L1419.5,766.253s7.14,1.158,8.6,4.823C1429.25,773.968,1425,779.537,1425,779.537Z"/>
  <path class="cls-6" d="M791.79,1211.02l504.42,25.86-3.19,62.19L788.6,1273.21Z"/>
  <path class="cls-8" d="M817.446,1243.43l458.274,2.88-0.35,56.5-458.28-2.88Z"/>
  <path class="cls-6" d="M986.452,1236.68l11.53-1011.44,32.258-60.517,5.2,1068.147Z"/>
  <path id="Rectangle_3_copy" data-name="Rectangle 3 copy" class="cls-7" d="M986.444,1228.83l4.871-937.838,13.635-56.113L1007,1233Z"/>
  <path id="Rectangle_3_copy-2" data-name="Rectangle 3 copy" class="cls-8" d="M1025.42,1231.52l2.28-703.932,6.3-41.972,0.94,738.784Z"/>
  <path id="Rectangle_3_copy-3" data-name="Rectangle 3 copy" class="cls-8" d="M1018,1233.89l1.13-350.228,3.14-20.882,0.63,370.61Z"/>
  <path class="cls-4" d="M276.39,1008.03s252.621,27.32,420.831,27.32c112.794,0,102.69,256.88,380.749,256.88,265.62,0,112.96-256.88,209.51-256.88h404.43s102.88,240.27-71.05,254.14c-33.46,2.67-51.01,173.98-51.01,173.98l-936.391-5.46s-174.891-128-174.891-240.48C458.568,1116.57,276.39,1008.03,276.39,1008.03Z"/>
  <g id="scratch">
    <g id="impact_copy" data-name="impact copy">
      <path class="cls-9" d="M360.7,1075.92l200.545,2.02L621,1084.02l-247.136,5.06Z"/>
      <path class="cls-9" d="M418,1132l131.39-1.94,45.111,4.59L422,1141Z"/>
      <path class="cls-9" d="M384.872,1094.92l109.243,2.22,35.585,3.62-137.117,3.32Z"/>
    </g>
    <g id="impact">
      <path class="cls-5" d="M369,1081l198,2,59,6-244,5Z"/>
      <path class="cls-5" d="M421,1134.53l133.39,0.53,45.111,4.59L428,1144Z"/>
      <path class="cls-5" d="M391.425,1100l108.317,2.19,34.958,3.55L398,1108Z"/>
    </g>
  </g>
  <g id="scratch_copy" data-name="scratch copy">
    <g id="impact_copy-2" data-name="impact copy">
      <path class="cls-9" d="M1692.99,1264.76l-88.95-2.49-28.52-7.07,132.07-7.32Z"/>
      <path class="cls-9" d="M1699.31,1052.68l-96.98-1.33-28.76-3.14,123.29-3.12Z"/>
      <path class="cls-9" d="M1709.63,1239.1l-56.68-.52-17.09-2.33,79.87-3.07Z"/>
    </g>
    <g id="impact-2" data-name="impact">
      <path class="cls-5" d="M1695.25,1259.54l-92.44-2.93-29.85-7.75,137.82-7.59Z"/>
      <path class="cls-5" d="M1698.08,1049.34l-98.52-1.35-29.2-3.16,125.31-3.14Z"/>
      <path class="cls-5" d="M1710.43,1235.88l-59.16-.67-17.92-2.58,83.52-3.19Z"/>
      <path class="cls-9" d="M1723.15,1164.44l-40.61-.99-12.19-4.25,52.93-5.26Z"/>
      <path class="cls-5" d="M1721.5,1158.54l-40.69-1.18-12.19-4.32,53.02-5Z"/>
      <path class="cls-9" d="M1720.2,1140.44l-25.58-.62-7.67-2.68,33.33-3.31Z"/>
      <path class="cls-5" d="M1719.16,1136.73l-25.63-.75-7.67-2.72,33.39-3.15Z"/>
      <path class="cls-9" d="M1703.17,1064.44l-32.89-.39-9.86-1.7,42.86-2.09Z"/>
      <path class="cls-5" d="M1701.84,1062.09l-32.95-.47-9.87-1.72,42.93-2Z"/>
      <path class="cls-9" d="M839.355,1176.4l-83.848,1.86-25.294,4.62,117.919,4.96Z"/>
      <path class="cls-5" d="M842.88,1181.18l-88.733,2.03-26.88,5.07,125.3,5.46Z"/>
      <path class="cls-9" d="M822.035,1153.75l-28.3.51-8.543,2.34,40.608,3.14Z"/>
      <path class="cls-5" d="M822.792,1156.98l-29.814.69-9.055,2.64,42.927,3.34Z"/>
    </g>
  </g>
  <path class="cls-8" d="M693,977.665l-13.487,3.967L703.8,1040.9l13.487-3.96Z"/>
  <path class="cls-8" d="M625.182,968.594L611.7,972.561l24.291,59.269,13.487-3.96Z"/>
  <path class="cls-8" d="M557.367,965.57l-13.488,3.967,24.292,59.273,13.487-3.97Z"/>
  <path class="cls-8" d="M489.551,962.547l-13.487,3.967,24.292,59.266,13.487-3.96Z"/>
  <path class="cls-8" d="M421.736,957.255l-13.487,3.967,24.292,59.268,13.487-3.96Z"/>
  <path class="cls-8" d="M353.921,957.255l-13.487,3.967,24.292,59.268,13.487-3.96Z"/>
  <path class="cls-7" d="M105,972l602.9,58.72,19.839,8.76L105,1004s-30.263-4.8-30-22C75.181,970.136,105,972,105,972Z"/>
  <path class="cls-6" d="M121,985l599.9,51.27,19.839,8.75-633.555-41.15S93.587,996.664,98,990C102.232,983.609,121,985,121,985Z"/>
  <path class="cls-6" d="M1309.64,441.63L803.768,791.211l-20.786,6.182L1292.23,418.25s15.06,0.4,19.84,6.81C1315.89,430.2,1309.64,441.63,1309.64,441.63Z"/>
  <path class="cls-7" d="M1291.15,435.089L821.523,776.543l-39.576,21.535,502.9-374.013s6.62,0.123,8.31,3.143C1294.5,429.6,1291.15,435.089,1291.15,435.089Z"/>
  <path class="cls-10" d="M276.39,1014.4l463.643,30.97,16.4,20.04-438.138-10.02Z"/>
  <path id="Rectangle_4_copy" data-name="Rectangle 4 copy" class="cls-11" d="M756.429,1065.41l-438.138-10.02M315,1052l426-5,15.429,18.41-438.138-10.02Z"/>
  <path class="cls-10" d="M1644.26,1286.03m-1136.5,49.92,1096.8-34.23,39.08-15.87L458.568,1222.09s1.263,29.96,13.663,59.21C483.951,1308.94,507.756,1335.95,507.756,1335.95Z"/>
  <path class="cls-11" d="M508,1336l1099-34,7-4-1132,1"/>
  <path id="Rectangle_5_copy" data-name="Rectangle 5 copy" class="cls-8" d="M1327.16,955.083l14.64,5.084-26.37,75.953-14.64-5.09Z"/>
  <path id="Rectangle_5_copy_2" data-name="Rectangle 5 copy 2" class="cls-8" d="M1400.77,943.46l14.65,5.083-26.37,75.947-14.65-5.08Z"/>
  <path id="Rectangle_5_copy_3" data-name="Rectangle 5 copy 3" class="cls-8" d="M1474.39,939.585l14.64,5.083-26.37,75.952-14.64-5.09Z"/>
  <path id="Rectangle_5_copy_4" data-name="Rectangle 5 copy 4" class="cls-8" d="M1548.01,935.711l14.64,5.083-26.37,75.946-14.64-5.08Z"/>
  <path id="Rectangle_5_copy_5" data-name="Rectangle 5 copy 5" class="cls-8" d="M1646,845l22-21-50.9,196.61-27.91-12.48Z"/>
  <path id="Rectangle_5_copy_6" data-name="Rectangle 5 copy 6" class="cls-8" d="M1695.24,928.93l14.64,5.083-26.37,75.947-14.64-5.08Z"/>
  <path class="cls-6" d="M1319.16,955.083l14.64,5.084-26.37,75.953-14.64-5.09Z"/>
  <path class="cls-6" d="M1392.77,943.46l14.65,5.083-26.37,75.947-14.65-5.08Z"/>
  <path class="cls-6" d="M1466.39,939.585l14.64,5.083-26.37,75.952-14.64-5.09Z"/>
  <path class="cls-6" d="M1540.01,935.711l14.64,5.083-26.37,75.946-14.64-5.08Z"/>
  <path class="cls-6" d="M1638,845l22-21-50.9,196.61-27.91-12.48Z"/>
  <path class="cls-6" d="M1687.24,928.93l14.64,5.083-26.37,75.947-14.64-5.08Z"/>
  <path class="cls-6" d="M681,976.665l-13.487,3.967L691.8,1039.9l13.487-3.96Z"/>
  <path class="cls-6" d="M613.182,967.594L599.7,971.561l24.291,59.269,13.487-3.96Z"/>
  <path class="cls-6" d="M545.367,964.57l-13.488,3.967,24.292,59.273,13.487-3.97Z"/>
  <path class="cls-6" d="M477.551,961.547l-13.487,3.967,24.292,59.266,13.487-3.96Z"/>
  <path class="cls-6" d="M409.736,956.255l-13.487,3.967,24.292,59.268,13.487-3.96Z"/>
  <path class="cls-6" d="M341.921,956.255l-13.487,3.967,24.292,59.268,13.487-3.96Z"/>
  <path class="cls-10" d="M1290.21,1019.96l406.26-24.6-3.65,43.725-415.36-1.82Z"/>
  <path class="cls-11" d="M1279,1035l415-10-1.18,14.09-415.36-1.82Z"/>
  <path class="cls-10" d="M1709.36,939.711l-406.25,24.594,3.64-43.722,415.36,1.821Z"/>
  <path class="cls-11" d="M1709,942l-406,23,1-4,410-28Z"/>
  <path class="cls-10" d="M740.944,993.454L277.3,962.483l-16.4-20.039,438.138,10.02Z"/>
  <path class="cls-11" d="M741.866,993.094l-463.643-30.97m463.643,30.97-463.643-30.97L275,960l443,10Z"/>
  <path class="cls-8" d="M964.408,326.384l-24.643-3.106-1.5,122.076,24.643,3.105Z"/>
  <path class="cls-8" d="M1041,338.884l-13.62-3.106-0.83,122.076,13.62,3.105Z"/>
  <path class="cls-8" d="M1109,347.884l-13.62-3.106-0.83,122.076,13.62,3.105Z"/>
  <path class="cls-6" d="M953.408,333.384l-24.643-3.106-1.5,122.076,24.643,3.105Z"/>
  <path class="cls-6" d="M1097.33,348.869l-24.64-3.106-1.51,122.076,24.65,3.105Z"/>
  <path class="cls-10" d="M1123.22,492.464L928.429,506.12m-30.935-72.263,212.4,22.979,13.33,35.628L928.429,506.12Z"/>
  <path class="cls-11" d="M1124.22,493.464L929.429,507.12M916,477l197-11,11.22,27.464L929.429,507.12Z"/>
  <path class="cls-10" d="M1113.62,361.3l-205.7-30.97-7.274-20.04,194.382,10.02Z"/>
  <path class="cls-11" d="M1113.62,362.3l-205.7-30.97m205.7,30.97-205.7-30.97L907,327l191,2Z"/>
  <path class="cls-4" d="M1042.45,188.059l388.66-4.654s-178.29,28.3-285.11,57.386c-77.36,21.064-92.91,45.545-92.91,45.545l-10.64-1.189V188.059Z"/>
  <path class="cls-5" d="M1087,187l277-3s-96.09,68.232-169,36c-99.54-44-141,66-141,66l-10.55.147Z"/>
  <path class="cls-4" d="M1686,825l163-2s-37.59,6.559-111,22c-53.92,11.342-66,40-66,40l-2,4Z"/>
  <path class="cls-5" d="M1711,826l138-3s-61.99,25.53-82,15c-38.71-20.373-69,22-69,22l-15,10Z"/>
  <path class="cls-4" d="M837.5,942.444s-136.014-54.419-265.98-52.832c-192.933,2.356-405.346,61.03-405.346,61.03s238.273-70.623,450.891-222.257c211.926-151.141,351.6-214.06,351.6-214.06l9.109-3.643S815.118,658.827,779.2,769.375C745.022,874.575,837.5,942.444,837.5,942.444Z"/>
  <path class="cls-5" d="M832.5,941.444S765.938,872.869,636,876c-134.632,3.244-254,29-254,29s283.132-53.409,333-107c44.4-47.714,246-277,246-277l15-9S781.916,671.452,746,782C711.821,887.2,832.5,941.444,832.5,941.444Z"/>
  <path class="cls-9" d="M351,900c-84.165,12.773-186.822,51.648-186.822,51.648s156.7-47.118,352.056-174.523c251-163.692,446.857-259.782,446.857-259.782l12.691-5.664S712.729,635.935,662,765"/>
  <path class="cls-4" d="M1080.71,1154.68s-40.47-33.77-87.45-34.61c-40.823-.74,2.493,32.11-60.118,13.66-49.845-14.68-65.344-132.01-46.456-283.286,19.6-157,173.984-259.6,173.984-259.6l3.64-6.376L948.627,531.632s-69.954,162.606-46.456,309.7C929.421,1011.91,1080.71,1154.68,1080.71,1154.68Z"/>
  <path class="cls-9" d="M993,1099s-81.855-44.3-66,30c0.775,3.63-30.711-27.67-40-66-8.858-36.55-14.811-60.28-1.689-211.556C898.93,694.445,1037,578,1037,578l-82-38-6-6s-69.256,161.238-52.931,308.335C915,1012.91,993,1099,993,1099Z"/>
  <path class="cls-6" d="M1001.04,535.08c41.33,11.57,83.88,37.9,73.73,48-9.95,9.9-58.6-4.107-88.611-20.216-23.477-12.6-31.268-22.792-29.376-27.971C958.644,529.794,971.435,526.789,1001.04,535.08Z"/>
  <path class="cls-6" d="M1001.49,1138.06c38.1,3.18,84.01,18.29,79.93,29.57-4.36,12.06-61.56,7.73-97.653-5.31-23.084-8.33-26.381-15.5-23.056-19.29C964.064,1139.22,976.357,1135.96,1001.49,1138.06Z"/>
  <g id="cannon2">
    <circle class="cls-12" cx="692" cy="1375" r="40"/>
    <circle class="cls-12" cx="854" cy="1375" r="40"/>
    <circle class="cls-12" cx="1016" cy="1375" r="40"/>
    <circle class="cls-12" cx="1178" cy="1375" r="40"/>
    <circle class="cls-12" cx="1340" cy="1375" r="40"/>
    <circle class="cls-12" cx="1502" cy="1375" r="40"/>
  </g>
  <g id="cannon">
    <circle class="cls-13" cx="677" cy="1376" r="40"/>
    <circle class="cls-13" cx="839" cy="1376" r="40"/>
    <circle class="cls-13" cx="1001" cy="1376" r="40"/>
    <circle class="cls-13" cx="1163" cy="1376" r="40"/>
    <circle class="cls-13" cx="1325" cy="1376" r="40"/>
    <circle class="cls-13" cx="1487" cy="1376" r="40"/>
  </g>
  <g>
    <g id="Group_1_copy" data-name="Group 1 copy">
      <rect id="Rounded_Rectangle_1" data-name="Rounded Rectangle 1" class="cls-12" x="1338" y="1065" width="79" height="134" rx="20" ry="20"/>
      <rect id="Rounded_Rectangle_1-2" data-name="Rounded Rectangle 1" class="cls-12" x="1448" y="1065" width="79" height="134" rx="20" ry="20"/>
      <rect id="Rounded_Rectangle_1-3" data-name="Rounded Rectangle 1" class="cls-12" x="1558" y="1064" width="79" height="134" rx="20" ry="20"/>
    </g>
    <g>
      <rect id="Rounded_Rectangle_1-4" data-name="Rounded Rectangle 1" class="cls-13" x="1322" y="1071" width="79" height="134" rx="20" ry="20"/>
      <rect id="Rounded_Rectangle_1-5" data-name="Rounded Rectangle 1" class="cls-13" x="1432" y="1071" width="79" height="134" rx="20" ry="20"/>
      <rect id="Rounded_Rectangle_1-6" data-name="Rounded Rectangle 1" class="cls-13" x="1542" y="1070" width="79" height="134" rx="20" ry="20"/>
    </g>
  </g>
  <path class="cls-10" d="M1317.9,1192.2l318.35-12.33-3.14,27.75-325.31-4.53Z"/>
  <path class="cls-11" d="M1309.06,1202.03l327.09-12.44-0.98,18.82-327.33-3.36Z"/>
  <path class="cls-1" d="M587.4,1433c104.405,0,189.042,26.51,189.042,59.21S691.8,1551.43,587.4,1551.43s-189.042-26.52-189.042-59.22S482.991,1433,587.4,1433Z"/>
  <ellipse class="cls-3" cx="903.5" cy="1472.5" rx="215.5" ry="67.5"/>
  <path class="cls-1" d="M1144.22,1472.5c161.03,0,291.57,40.89,291.57,91.33s-130.54,91.33-291.57,91.33-291.575-40.89-291.575-91.33S983.187,1472.5,1144.22,1472.5Z"/>
  <ellipse class="cls-3" cx="1450.5" cy="1492.5" rx="215.5" ry="67.5"/>
  <path class="cls-1" d="M1686.01,1493c79.54,0,144.01,20.2,144.01,45.11s-64.47,45.11-144.01,45.11S1542,1563.02,1542,1538.11,1606.48,1493,1686.01,1493Z"/>
  <ellipse class="cls-3" cx="792.5" cy="1567.5" rx="215.5" ry="67.5"/>
  <ellipse class="cls-3" cx="1377.5" cy="1547.5" rx="215.5" ry="67.5"/>
  <path class="cls-1" d="M331.607,1560c63.807,0,115.534,16.2,115.534,36.19s-51.727,36.19-115.534,36.19-115.534-16.21-115.534-36.19S267.8,1560,331.607,1560Z"/>
  <path class="cls-1" d="M125,1434.19c40.807,0,73.888,10.36,73.888,23.14s-33.081,23.14-73.888,23.14-73.888-10.36-73.888-23.14S84.193,1434.19,125,1434.19Z"/>
  <path class="cls-1" d="M1856.82,1432c39.12,0,70.82,9.93,70.82,22.18s-31.7,22.18-70.82,22.18-70.82-9.93-70.82-22.18S1817.71,1432,1856.82,1432Z"/>
  <path class="cls-2" d="M567.4,1414c104.405,0,189.042,26.51,189.042,59.21S671.8,1532.43,567.4,1532.43,310.57,1487.44,233,1474C316.366,1480.19,462.991,1414,567.4,1414Z"/>
  <ellipse class="cls-14" cx="883.5" cy="1453.5" rx="215.5" ry="67.5"/>
  <path class="cls-2" d="M1124.22,1453.5c161.03,0,291.57,40.89,291.57,91.33s-130.54,91.33-291.57,91.33-291.575-40.89-291.575-91.33S963.187,1453.5,1124.22,1453.5Z"/>
  <ellipse class="cls-14" cx="1430.5" cy="1473.5" rx="215.5" ry="67.5"/>
  <path class="cls-2" d="M1666.01,1474c79.54,0,104.78,32.08,249.99,30,24.91-.36-170.45,60.22-249.99,60.22S1522,1544.02,1522,1519.11,1586.48,1474,1666.01,1474Z"/>
  <ellipse class="cls-14" cx="772.5" cy="1548.5" rx="215.5" ry="67.5"/>
  <ellipse class="cls-14" cx="1357.5" cy="1528.5" rx="215.5" ry="67.5"/>
  <path class="cls-2" d="M311.607,1541c63.807,0,115.534,16.2,115.534,36.19s-51.727,36.19-115.534,36.19S221.354,1581.9,86,1571C66.078,1569.4,247.8,1541,311.607,1541Z"/>
  <path class="cls-2" d="M105,1415.19c40.807,0,73.888,10.36,73.888,23.14s-33.081,23.14-73.888,23.14-73.888-10.36-73.888-23.14S64.193,1415.19,105,1415.19Z"/>
  <path class="cls-1" d="M640.185,1433.1c73.076,0,132.315,18.55,132.315,41.44s-59.239,41.45-132.315,41.45-132.315-18.56-132.315-41.45S567.11,1433.1,640.185,1433.1Z"/>
  <ellipse class="cls-14" cx="604.375" cy="1456.64" rx="132.313" ry="41.45"/>
  <path class="cls-1" d="M579.989,1211.24c57.365,0,103.868,14.57,103.868,32.54s-46.5,32.54-103.868,32.54-103.869-14.57-103.869-32.54S522.624,1211.24,579.989,1211.24Z"/>
  <path class="cls-2" d="M546.868,1197.18c57.365,0,208.094,34.33,190.132,34.82-125.152,3.39-132.767,30.26-190.132,30.26S443,1247.69,443,1229.72,489.5,1197.18,546.868,1197.18Z"/>
  <ellipse class="cls-3" cx="460" cy="1213.33" rx="73.875" ry="23.14"/>
  <ellipse class="cls-14" cx="440" cy="1203.33" rx="73.875" ry="23.14"/>
  <path class="cls-1" d="M1690,1492.19c40.8,0,73.88,10.36,73.88,23.14s-33.08,23.14-73.88,23.14-73.87-10.36-73.87-23.14S1649.2,1492.19,1690,1492.19Z"/>
  <path class="cls-2" d="M1670,1482.19c40.8,0,73.88,10.36,73.88,23.14s-33.08,23.14-73.88,23.14-73.87-10.36-73.87-23.14S1629.2,1482.19,1670,1482.19Z"/>
  <path class="cls-1" d="M979.2,1423.85c89.17,0,161.46,22.65,161.46,50.58S1068.37,1525,979.2,1525s-161.461-22.64-161.461-50.57S890.027,1423.85,979.2,1423.85Z"/>
  <path class="cls-2" d="M935.488,1402c89.172,0,161.462,22.64,161.462,50.57s-72.29,50.58-161.462,50.58-161.461-22.65-161.461-50.58S846.315,1402,935.488,1402Z"/>
  <path class="cls-1" d="M1592,1452.19c40.8,0,73.88,10.36,73.88,23.14s-33.08,23.14-73.88,23.14-73.87-10.36-73.87-23.14S1551.2,1452.19,1592,1452.19Z"/>
  <path class="cls-2" d="M1572,1442.19c40.8,0,73.88,10.36,73.88,23.14s-33.08,23.14-73.88,23.14-73.87-10.36-73.87-23.14S1531.2,1442.19,1572,1442.19Z"/>
  <path class="cls-1" d="M1254.83,1522.46c73.65,0,133.35,18.7,133.35,41.77s-59.7,41.77-133.35,41.77-133.35-18.7-133.35-41.77S1181.19,1522.46,1254.83,1522.46Z"/>
  <path class="cls-2" d="M1218.73,1504.41c73.65,0,133.35,18.7,133.35,41.77s-59.7,41.77-133.35,41.77-133.35-18.7-133.35-41.77S1145.08,1504.41,1218.73,1504.41Z"/>
  <path class="cls-2" d="M1836.82,1413c39.12,0,70.82,9.93,70.82,22.18s-31.7,22.18-70.82,22.18-70.82-9.93-70.82-22.18S1797.71,1413,1836.82,1413Z"/>
  <path class="cls-1" d="M1745,1195.19c40.8,0,73.88,10.36,73.88,23.14s-33.08,23.14-73.88,23.14-73.87-10.36-73.87-23.14S1704.2,1195.19,1745,1195.19Z"/>
  <path class="cls-2" d="M1725,1185.19c40.8,0,73.88,10.36,73.88,23.14s-33.08,23.14-73.88,23.14-73.87-10.36-73.87-23.14S1684.2,1185.19,1725,1185.19Z"/>
</svg>
